<mxfile host="app.diagrams.net" agent="Mozilla/5.0 (Windows NT 10.0; Win64; x64) AppleWebKit/537.36 (KHTML, like Gecko) Chrome/131.0.0.0 Safari/537.36" version="24.9.3">
  <diagram name="Page-1" id="DFdH9Ikgwe46YlfD4Rme">
    <mxGraphModel dx="1007" dy="605" grid="1" gridSize="10" guides="1" tooltips="1" connect="1" arrows="1" fold="1" page="1" pageScale="1" pageWidth="1100" pageHeight="850" math="0" shadow="0">
      <root>
        <mxCell id="0" />
        <mxCell id="1" parent="0" />
        <mxCell id="S203vMJa91FMzyEnusju-2" value="AWS Glue" style="outlineConnect=0;dashed=0;verticalLabelPosition=bottom;verticalAlign=top;align=center;html=1;shape=mxgraph.aws3.glue;fillColor=#F58534;gradientColor=none;" vertex="1" parent="1">
          <mxGeometry x="210" y="402.5" width="82.5" height="99" as="geometry" />
        </mxCell>
        <mxCell id="S203vMJa91FMzyEnusju-25" style="edgeStyle=orthogonalEdgeStyle;rounded=0;orthogonalLoop=1;jettySize=auto;html=1;" edge="1" parent="1" source="S203vMJa91FMzyEnusju-6" target="S203vMJa91FMzyEnusju-13">
          <mxGeometry relative="1" as="geometry" />
        </mxCell>
        <mxCell id="S203vMJa91FMzyEnusju-49" style="edgeStyle=orthogonalEdgeStyle;rounded=0;orthogonalLoop=1;jettySize=auto;html=1;" edge="1" parent="1" source="S203vMJa91FMzyEnusju-6" target="S203vMJa91FMzyEnusju-2">
          <mxGeometry relative="1" as="geometry">
            <Array as="points">
              <mxPoint x="108" y="490" />
            </Array>
          </mxGeometry>
        </mxCell>
        <mxCell id="S203vMJa91FMzyEnusju-60" style="edgeStyle=orthogonalEdgeStyle;rounded=0;orthogonalLoop=1;jettySize=auto;html=1;" edge="1" parent="1" source="S203vMJa91FMzyEnusju-6" target="S203vMJa91FMzyEnusju-56">
          <mxGeometry relative="1" as="geometry" />
        </mxCell>
        <mxCell id="S203vMJa91FMzyEnusju-6" value="AMI" style="outlineConnect=0;dashed=0;verticalLabelPosition=bottom;verticalAlign=top;align=center;html=1;shape=mxgraph.aws3.ami;fillColor=#F58534;gradientColor=none;" vertex="1" parent="1">
          <mxGeometry x="78.25" y="389.5" width="60" height="63" as="geometry" />
        </mxCell>
        <mxCell id="S203vMJa91FMzyEnusju-35" style="edgeStyle=orthogonalEdgeStyle;rounded=0;orthogonalLoop=1;jettySize=auto;html=1;" edge="1" parent="1" source="S203vMJa91FMzyEnusju-8" target="S203vMJa91FMzyEnusju-11">
          <mxGeometry relative="1" as="geometry" />
        </mxCell>
        <mxCell id="S203vMJa91FMzyEnusju-8" value="Endpoint" style="outlineConnect=0;dashed=0;verticalLabelPosition=bottom;verticalAlign=top;align=center;html=1;shape=mxgraph.aws3.endpoints;fillColor=#01a88d;gradientColor=none;" vertex="1" parent="1">
          <mxGeometry x="719" y="380" width="69" height="72" as="geometry" />
        </mxCell>
        <mxCell id="S203vMJa91FMzyEnusju-36" style="edgeStyle=orthogonalEdgeStyle;rounded=0;orthogonalLoop=1;jettySize=auto;html=1;" edge="1" parent="1" source="S203vMJa91FMzyEnusju-11" target="S203vMJa91FMzyEnusju-20">
          <mxGeometry relative="1" as="geometry" />
        </mxCell>
        <mxCell id="S203vMJa91FMzyEnusju-11" value="Lambda Function" style="outlineConnect=0;dashed=0;verticalLabelPosition=bottom;verticalAlign=top;align=center;html=1;shape=mxgraph.aws3.lambda_function;fillColor=#F58534;gradientColor=none;" vertex="1" parent="1">
          <mxGeometry x="719" y="260.5" width="69" height="72" as="geometry" />
        </mxCell>
        <mxCell id="S203vMJa91FMzyEnusju-47" style="edgeStyle=orthogonalEdgeStyle;rounded=0;orthogonalLoop=1;jettySize=auto;html=1;" edge="1" parent="1" source="S203vMJa91FMzyEnusju-13" target="S203vMJa91FMzyEnusju-14">
          <mxGeometry relative="1" as="geometry" />
        </mxCell>
        <mxCell id="S203vMJa91FMzyEnusju-13" value="S3" style="outlineConnect=0;dashed=0;verticalLabelPosition=bottom;verticalAlign=top;align=center;html=1;shape=mxgraph.aws3.s3;fillColor=#E05243;gradientColor=none;" vertex="1" parent="1">
          <mxGeometry x="70" y="126.25" width="76.5" height="93" as="geometry" />
        </mxCell>
        <mxCell id="S203vMJa91FMzyEnusju-14" value="Bucket" style="outlineConnect=0;dashed=0;verticalLabelPosition=bottom;verticalAlign=top;align=center;html=1;shape=mxgraph.aws3.bucket;fillColor=#E05243;gradientColor=none;" vertex="1" parent="1">
          <mxGeometry x="210" y="142.75" width="60" height="61.5" as="geometry" />
        </mxCell>
        <mxCell id="S203vMJa91FMzyEnusju-15" value="Postman" style="sketch=0;outlineConnect=0;fontColor=#232F3E;gradientColor=none;strokeColor=#232F3E;fillColor=#ffffff;dashed=0;verticalLabelPosition=bottom;verticalAlign=top;align=center;html=1;fontSize=12;fontStyle=0;aspect=fixed;shape=mxgraph.aws4.resourceIcon;resIcon=mxgraph.aws4.client;" vertex="1" parent="1">
          <mxGeometry x="770" y="129" width="60" height="60" as="geometry" />
        </mxCell>
        <mxCell id="S203vMJa91FMzyEnusju-45" style="edgeStyle=orthogonalEdgeStyle;rounded=0;orthogonalLoop=1;jettySize=auto;html=1;" edge="1" parent="1" source="S203vMJa91FMzyEnusju-18" target="S203vMJa91FMzyEnusju-21">
          <mxGeometry relative="1" as="geometry" />
        </mxCell>
        <mxCell id="S203vMJa91FMzyEnusju-55" style="edgeStyle=orthogonalEdgeStyle;rounded=0;orthogonalLoop=1;jettySize=auto;html=1;" edge="1" parent="1" source="S203vMJa91FMzyEnusju-18" target="S203vMJa91FMzyEnusju-53">
          <mxGeometry relative="1" as="geometry" />
        </mxCell>
        <mxCell id="S203vMJa91FMzyEnusju-18" value="Amazon SageMaker" style="sketch=0;outlineConnect=0;fontColor=#232F3E;gradientColor=none;strokeColor=#ffffff;fillColor=#01a88d;dashed=0;verticalLabelPosition=middle;verticalAlign=bottom;align=center;html=1;whiteSpace=wrap;fontSize=10;fontStyle=1;spacing=3;shape=mxgraph.aws4.productIcon;prIcon=mxgraph.aws4.sagemaker;" vertex="1" parent="1">
          <mxGeometry x="345" y="480" width="80" height="110" as="geometry" />
        </mxCell>
        <mxCell id="S203vMJa91FMzyEnusju-58" style="edgeStyle=orthogonalEdgeStyle;rounded=0;orthogonalLoop=1;jettySize=auto;html=1;" edge="1" parent="1" source="S203vMJa91FMzyEnusju-20" target="S203vMJa91FMzyEnusju-15">
          <mxGeometry relative="1" as="geometry">
            <Array as="points">
              <mxPoint x="714" y="165" />
              <mxPoint x="714" y="160" />
            </Array>
          </mxGeometry>
        </mxCell>
        <mxCell id="S203vMJa91FMzyEnusju-20" value="API Gateway Endpoint" style="sketch=0;outlineConnect=0;fontColor=#232F3E;gradientColor=none;fillColor=#E7157B;strokeColor=none;dashed=0;verticalLabelPosition=bottom;verticalAlign=top;align=center;html=1;fontSize=12;fontStyle=0;aspect=fixed;pointerEvents=1;shape=mxgraph.aws4.endpoint;" vertex="1" parent="1">
          <mxGeometry x="570" y="120" width="78" height="78" as="geometry" />
        </mxCell>
        <mxCell id="S203vMJa91FMzyEnusju-39" style="edgeStyle=orthogonalEdgeStyle;rounded=0;orthogonalLoop=1;jettySize=auto;html=1;" edge="1" parent="1" source="S203vMJa91FMzyEnusju-21" target="S203vMJa91FMzyEnusju-23">
          <mxGeometry relative="1" as="geometry" />
        </mxCell>
        <mxCell id="S203vMJa91FMzyEnusju-52" style="edgeStyle=orthogonalEdgeStyle;rounded=0;orthogonalLoop=1;jettySize=auto;html=1;" edge="1" parent="1" source="S203vMJa91FMzyEnusju-21" target="S203vMJa91FMzyEnusju-22">
          <mxGeometry relative="1" as="geometry" />
        </mxCell>
        <mxCell id="S203vMJa91FMzyEnusju-21" value="Machine Learning" style="sketch=0;points=[[0,0,0],[0.25,0,0],[0.5,0,0],[0.75,0,0],[1,0,0],[0,1,0],[0.25,1,0],[0.5,1,0],[0.75,1,0],[1,1,0],[0,0.25,0],[0,0.5,0],[0,0.75,0],[1,0.25,0],[1,0.5,0],[1,0.75,0]];outlineConnect=0;fontColor=#232F3E;fillColor=#01A88D;strokeColor=#ffffff;dashed=0;verticalLabelPosition=bottom;verticalAlign=top;align=center;html=1;fontSize=12;fontStyle=0;aspect=fixed;shape=mxgraph.aws4.resourceIcon;resIcon=mxgraph.aws4.machine_learning;" vertex="1" parent="1">
          <mxGeometry x="470" y="324.5" width="78" height="78" as="geometry" />
        </mxCell>
        <mxCell id="S203vMJa91FMzyEnusju-22" value="Train" style="sketch=0;outlineConnect=0;fontColor=#232F3E;gradientColor=none;fillColor=#01A88D;strokeColor=none;dashed=0;verticalLabelPosition=bottom;verticalAlign=top;align=center;html=1;fontSize=12;fontStyle=0;aspect=fixed;pointerEvents=1;shape=mxgraph.aws4.sagemaker_train;" vertex="1" parent="1">
          <mxGeometry x="470" y="180" width="78" height="65" as="geometry" />
        </mxCell>
        <mxCell id="S203vMJa91FMzyEnusju-40" style="edgeStyle=orthogonalEdgeStyle;rounded=0;orthogonalLoop=1;jettySize=auto;html=1;" edge="1" parent="1" source="S203vMJa91FMzyEnusju-23" target="S203vMJa91FMzyEnusju-8">
          <mxGeometry relative="1" as="geometry">
            <Array as="points">
              <mxPoint x="629" y="423" />
            </Array>
          </mxGeometry>
        </mxCell>
        <mxCell id="S203vMJa91FMzyEnusju-23" value="Model" style="sketch=0;outlineConnect=0;fontColor=#232F3E;gradientColor=none;fillColor=#01A88D;strokeColor=none;dashed=0;verticalLabelPosition=bottom;verticalAlign=top;align=center;html=1;fontSize=12;fontStyle=0;aspect=fixed;pointerEvents=1;shape=mxgraph.aws4.sagemaker_model;" vertex="1" parent="1">
          <mxGeometry x="590" y="324.5" width="78" height="78" as="geometry" />
        </mxCell>
        <mxCell id="S203vMJa91FMzyEnusju-28" style="edgeStyle=orthogonalEdgeStyle;rounded=0;orthogonalLoop=1;jettySize=auto;html=1;" edge="1" parent="1" source="S203vMJa91FMzyEnusju-24" target="S203vMJa91FMzyEnusju-1">
          <mxGeometry relative="1" as="geometry" />
        </mxCell>
        <mxCell id="S203vMJa91FMzyEnusju-29" style="edgeStyle=orthogonalEdgeStyle;rounded=0;orthogonalLoop=1;jettySize=auto;html=1;" edge="1" parent="1" source="S203vMJa91FMzyEnusju-24" target="S203vMJa91FMzyEnusju-2">
          <mxGeometry relative="1" as="geometry" />
        </mxCell>
        <mxCell id="S203vMJa91FMzyEnusju-24" value="Aurora" style="sketch=0;points=[[0,0,0],[0.25,0,0],[0.5,0,0],[0.75,0,0],[1,0,0],[0,1,0],[0.25,1,0],[0.5,1,0],[0.75,1,0],[1,1,0],[0,0.25,0],[0,0.5,0],[0,0.75,0],[1,0.25,0],[1,0.5,0],[1,0.75,0]];outlineConnect=0;fontColor=#232F3E;fillColor=#C925D1;strokeColor=#ffffff;dashed=0;verticalLabelPosition=bottom;verticalAlign=top;align=center;html=1;fontSize=12;fontStyle=0;aspect=fixed;shape=mxgraph.aws4.resourceIcon;resIcon=mxgraph.aws4.aurora;" vertex="1" parent="1">
          <mxGeometry x="146.5" y="280" width="78" height="78" as="geometry" />
        </mxCell>
        <mxCell id="S203vMJa91FMzyEnusju-27" style="edgeStyle=orthogonalEdgeStyle;rounded=0;orthogonalLoop=1;jettySize=auto;html=1;entryX=0.5;entryY=1;entryDx=0;entryDy=0;entryPerimeter=0;" edge="1" parent="1" source="S203vMJa91FMzyEnusju-24" target="S203vMJa91FMzyEnusju-13">
          <mxGeometry relative="1" as="geometry" />
        </mxCell>
        <mxCell id="S203vMJa91FMzyEnusju-44" style="edgeStyle=orthogonalEdgeStyle;rounded=0;orthogonalLoop=1;jettySize=auto;html=1;" edge="1" parent="1" source="S203vMJa91FMzyEnusju-41" target="S203vMJa91FMzyEnusju-18">
          <mxGeometry relative="1" as="geometry" />
        </mxCell>
        <mxCell id="S203vMJa91FMzyEnusju-41" value="AMI" style="outlineConnect=0;dashed=0;verticalLabelPosition=bottom;verticalAlign=top;align=center;html=1;shape=mxgraph.aws3.ami;fillColor=#F58534;gradientColor=none;" vertex="1" parent="1">
          <mxGeometry x="630" y="620" width="60" height="63" as="geometry" />
        </mxCell>
        <mxCell id="S203vMJa91FMzyEnusju-48" value="" style="edgeStyle=orthogonalEdgeStyle;rounded=0;orthogonalLoop=1;jettySize=auto;html=1;entryX=0.94;entryY=0.5;entryDx=0;entryDy=0;entryPerimeter=0;" edge="1" parent="1" source="S203vMJa91FMzyEnusju-21" target="S203vMJa91FMzyEnusju-14">
          <mxGeometry relative="1" as="geometry">
            <mxPoint x="470" y="439" as="sourcePoint" />
            <mxPoint x="300" y="180" as="targetPoint" />
            <Array as="points">
              <mxPoint x="509" y="429" />
              <mxPoint x="428" y="429" />
              <mxPoint x="428" y="174" />
              <mxPoint x="387" y="174" />
            </Array>
          </mxGeometry>
        </mxCell>
        <mxCell id="S203vMJa91FMzyEnusju-62" style="edgeStyle=orthogonalEdgeStyle;rounded=0;orthogonalLoop=1;jettySize=auto;html=1;" edge="1" parent="1" source="S203vMJa91FMzyEnusju-1" target="S203vMJa91FMzyEnusju-14">
          <mxGeometry relative="1" as="geometry" />
        </mxCell>
        <mxCell id="S203vMJa91FMzyEnusju-1" value="Athena" style="outlineConnect=0;dashed=0;verticalLabelPosition=bottom;verticalAlign=top;align=center;html=1;shape=mxgraph.aws3.athena;fillColor=#F58534;gradientColor=none;textShadow=0;" vertex="1" parent="1">
          <mxGeometry x="310" y="280" width="76.5" height="76.5" as="geometry" />
        </mxCell>
        <mxCell id="S203vMJa91FMzyEnusju-50" style="edgeStyle=orthogonalEdgeStyle;rounded=0;orthogonalLoop=1;jettySize=auto;html=1;entryX=1;entryY=0.5;entryDx=0;entryDy=0;entryPerimeter=0;" edge="1" parent="1" source="S203vMJa91FMzyEnusju-41" target="S203vMJa91FMzyEnusju-11">
          <mxGeometry relative="1" as="geometry" />
        </mxCell>
        <mxCell id="S203vMJa91FMzyEnusju-53" value="Bucket" style="outlineConnect=0;dashed=0;verticalLabelPosition=bottom;verticalAlign=top;align=center;html=1;shape=mxgraph.aws3.bucket;fillColor=#E05243;gradientColor=none;" vertex="1" parent="1">
          <mxGeometry x="210" y="558.5" width="60" height="61.5" as="geometry" />
        </mxCell>
        <mxCell id="S203vMJa91FMzyEnusju-54" style="edgeStyle=orthogonalEdgeStyle;rounded=0;orthogonalLoop=1;jettySize=auto;html=1;entryX=0.5;entryY=0;entryDx=0;entryDy=0;entryPerimeter=0;" edge="1" parent="1" source="S203vMJa91FMzyEnusju-2" target="S203vMJa91FMzyEnusju-53">
          <mxGeometry relative="1" as="geometry" />
        </mxCell>
        <mxCell id="S203vMJa91FMzyEnusju-56" value="S3" style="outlineConnect=0;dashed=0;verticalLabelPosition=bottom;verticalAlign=top;align=center;html=1;shape=mxgraph.aws3.s3;fillColor=#E05243;gradientColor=none;" vertex="1" parent="1">
          <mxGeometry x="70" y="542.75" width="76.5" height="93" as="geometry" />
        </mxCell>
        <mxCell id="S203vMJa91FMzyEnusju-57" style="edgeStyle=orthogonalEdgeStyle;rounded=0;orthogonalLoop=1;jettySize=auto;html=1;entryX=0.06;entryY=0.5;entryDx=0;entryDy=0;entryPerimeter=0;" edge="1" parent="1" source="S203vMJa91FMzyEnusju-56" target="S203vMJa91FMzyEnusju-53">
          <mxGeometry relative="1" as="geometry" />
        </mxCell>
      </root>
    </mxGraphModel>
  </diagram>
</mxfile>
